<svg xmlns="http://www.w3.org/2000/svg" xmlns:xlink="http://www.w3.org/1999/xlink" width="1200px" height="1200px" viewBox="0 0 1200 1200">
  <g id="Egry67GW9f2PDfTzaE_PG">
<g style="">
		<g id="c">
<polygon style="stroke: rgb(193,193,193); stroke-width: 0; stroke-dasharray: none; stroke-linecap: butt; stroke-dashoffset: 0; stroke-linejoin: miter; stroke-miterlimit: 4; fill: rgb(24,255,166); fill-rule: nonzero; opacity: 1;" points="0,58.57 -128.57,0 0,-58.57 128.57,0 0,58.57 " transform="matrix(-1.155407 0 0 -1.155407 564.171103 553.76149) matrix(1 0 0 1 0 -80.64)"/>
</g>
		<g id="c">
<polygon style="stroke: rgb(193,193,193); stroke-width: 0; stroke-dasharray: none; stroke-linecap: butt; stroke-dashoffset: 0; stroke-linejoin: miter; stroke-miterlimit: 4; fill: rgb(55,55,55); fill-rule: nonzero; opacity: 1;" points="-64.21,51.355 64.21,109.925 64.21,-51.355 -64.21,-109.925 -64.21,51.355 " transform="matrix(-1.155407 0 0 -1.155407 564.171103 553.76149) matrix(1 0 0 1 -64.21 29.285)"/>
</g>
		<g id="c">
<path style="stroke: rgb(193,193,193); stroke-width: 0; stroke-dasharray: none; stroke-linecap: butt; stroke-dashoffset: 0; stroke-linejoin: miter; stroke-miterlimit: 4; fill: rgb(24,255,166); fill-rule: nonzero; opacity: 1;" transform="matrix(-1.155407 0 0 -1.155407 564.171103 553.76149) matrix(1 0 0 1 91.98 -52.16)  translate(-220.55, -87.05)" d="M 220.55 82.63 C 219.06 82.63 217.80 84.66 217.80 87.05 C 217.80 89.44 219.06 91.47 220.55 91.47 C 222.04 91.47 223.30 89.44 223.30 87.05 C 223.30 84.66 222.04 82.63 220.55 82.63 Z" stroke-linecap="round"/>
</g>
		<g id="c">
<path style="stroke: rgb(193,193,193); stroke-width: 0; stroke-dasharray: none; stroke-linecap: butt; stroke-dashoffset: 0; stroke-linejoin: miter; stroke-miterlimit: 4; fill: rgb(24,255,166); fill-rule: nonzero; opacity: 1;" transform="matrix(-1.155407 0 0 -1.155407 564.171103 553.76149) matrix(1 0 0 1 91.98 -35.85)  translate(-220.55, -103.36)" d="M 220.55 98.94 C 219.06 98.94 217.80 100.97 217.80 103.36 C 217.80 105.75 219.06 107.78 220.55 107.78 C 222.04 107.78 223.30 105.75 223.30 103.36 C 223.30 100.97 222.04 98.94 220.55 98.94 Z" stroke-linecap="round"/>
</g>
		<g id="c">
<path style="stroke: rgb(193,193,193); stroke-width: 0; stroke-dasharray: none; stroke-linecap: butt; stroke-dashoffset: 0; stroke-linejoin: miter; stroke-miterlimit: 4; fill: rgb(24,255,166); fill-rule: nonzero; opacity: 1;" transform="matrix(-1.155407 0 0 -1.155407 564.171103 553.76149) matrix(1 0 0 1 81.68 99.62)  translate(-210.25, -238.83)" d="M 210.25 234.41 C 208.76 234.41 207.50 236.44 207.50 238.83 C 207.50 241.22 208.76 243.25 210.25 243.25 C 211.74 243.25 213.00 241.22 213.00 238.83 C 213.00 236.44 211.74 234.41 210.25 234.41 Z" stroke-linecap="round"/>
</g>
		<g id="c">
<path style="stroke: rgb(193,193,193); stroke-width: 0; stroke-dasharray: none; stroke-linecap: butt; stroke-dashoffset: 0; stroke-linejoin: miter; stroke-miterlimit: 4; fill: rgb(24,255,166); fill-rule: nonzero; opacity: 1;" transform="matrix(-1.155407 0 0 -1.155407 564.171103 553.76149) matrix(1 0 0 1 91.98 -19.54)  translate(-220.55, -119.67)" d="M 220.55 115.25 C 219.06 115.25 217.80 117.28 217.80 119.67 C 217.80 122.06 219.06 124.09 220.55 124.09 C 222.04 124.09 223.30 122.06 223.30 119.67 C 223.30 117.28 222.04 115.25 220.55 115.25 Z" stroke-linecap="round"/>
</g>
		<g id="c">
<path style="stroke: rgb(193,193,193); stroke-width: 0; stroke-dasharray: none; stroke-linecap: butt; stroke-dashoffset: 0; stroke-linejoin: miter; stroke-miterlimit: 4; fill: rgb(24,255,166); fill-rule: nonzero; opacity: 1;" transform="matrix(-1.155407 0 0 -1.155407 564.171103 553.76149) matrix(1 0 0 1 81.68 50.7)  translate(-210.25, -189.91)" d="M 210.25 185.49 C 208.76 185.49 207.50 187.52 207.50 189.91 C 207.50 192.30 208.76 194.33 210.25 194.33 C 211.74 194.33 213.00 192.30 213.00 189.91 C 213.00 187.52 211.74 185.49 210.25 185.49 Z" stroke-linecap="round"/>
</g>
		<g id="c">
<path style="stroke: rgb(193,193,193); stroke-width: 0; stroke-dasharray: none; stroke-linecap: butt; stroke-dashoffset: 0; stroke-linejoin: miter; stroke-miterlimit: 4; fill: rgb(24,255,166); fill-rule: nonzero; opacity: 1;" transform="matrix(-1.155407 0 0 -1.155407 564.171103 553.76149) matrix(1 0 0 1 81.68 83.32)  translate(-210.25, -222.53)" d="M 210.25 218.11 C 208.76 218.11 207.50 220.14 207.50 222.53 C 207.50 224.92 208.76 226.95 210.25 226.95 C 211.74 226.95 213.00 224.92 213.00 222.53 C 213.00 220.14 211.74 218.11 210.25 218.11 Z" stroke-linecap="round"/>
</g>
		<g id="c">
<path style="stroke: rgb(193,193,193); stroke-width: 0; stroke-dasharray: none; stroke-linecap: butt; stroke-dashoffset: 0; stroke-linejoin: miter; stroke-miterlimit: 4; fill: rgb(24,255,166); fill-rule: nonzero; opacity: 1;" transform="matrix(-1.155407 0 0 -1.155407 564.171103 553.76149) matrix(1 0 0 1 81.68 67.01)  translate(-210.25, -206.22)" d="M 210.25 201.80 C 208.76 201.80 207.50 203.83 207.50 206.22 C 207.50 208.61 208.76 210.64 210.25 210.64 C 211.74 210.64 213.00 208.61 213.00 206.22 C 213.00 203.83 211.74 201.80 210.25 201.80 Z" stroke-linecap="round"/>
</g>
		<g id="c">
<ellipse style="stroke: rgb(193,193,193); stroke-width: 0; stroke-dasharray: none; stroke-linecap: butt; stroke-dashoffset: 0; stroke-linejoin: miter; stroke-miterlimit: 4; fill: rgb(24,255,166); fill-rule: nonzero; opacity: 1;" cx="0" cy="0" rx="2.75" ry="4.42" transform="matrix(-1.155407 0 0 -1.155407 564.171103 553.76149) matrix(1 0 0 1 81.68 34.4)"/>
</g>
		<g id="c">
<path style="stroke: rgb(193,193,193); stroke-width: 0; stroke-dasharray: none; stroke-linecap: butt; stroke-dashoffset: 0; stroke-linejoin: miter; stroke-miterlimit: 4; fill: rgb(24,255,166); fill-rule: nonzero; opacity: 1;" transform="matrix(-1.155407 0 0 -1.155407 564.171103 553.76149) matrix(1 0 0 1 91.98 78.63)  translate(-220.55, -217.84)" d="M 220.55 213.42 C 219.06 213.42 217.80 215.45 217.80 217.84 C 217.80 220.23 219.06 222.26 220.55 222.26 C 222.04 222.26 223.30 220.23 223.30 217.84 C 223.30 215.45 222.04 213.42 220.55 213.42 Z" stroke-linecap="round"/>
</g>
		<g id="c">
<path style="stroke: rgb(193,193,193); stroke-width: 0; stroke-dasharray: none; stroke-linecap: butt; stroke-dashoffset: 0; stroke-linejoin: miter; stroke-miterlimit: 4; fill: rgb(24,255,166); fill-rule: nonzero; opacity: 1;" transform="matrix(-1.155407 0 0 -1.155407 564.171103 553.76149) matrix(1 0 0 1 91.98 62.32)  translate(-220.55, -201.53)" d="M 220.55 197.11 C 219.06 197.11 217.80 199.14 217.80 201.53 C 217.80 203.92 219.06 205.95 220.55 205.95 C 222.04 205.95 223.30 203.92 223.30 201.53 C 223.30 199.14 222.04 197.11 220.55 197.11 Z" stroke-linecap="round"/>
</g>
		<g id="c">
<path style="stroke: rgb(193,193,193); stroke-width: 0; stroke-dasharray: none; stroke-linecap: butt; stroke-dashoffset: 0; stroke-linejoin: miter; stroke-miterlimit: 4; fill: rgb(24,255,166); fill-rule: nonzero; opacity: 1;" transform="matrix(-1.155407 0 0 -1.155407 564.171103 553.76149) matrix(1 0 0 1 91.98 94.95)  translate(-220.55, -234.16)" d="M 220.55 238.58 C 222.04 238.58 223.30 236.55 223.30 234.16 C 223.30 231.77 222.04 229.74 220.55 229.74 C 219.06 229.74 217.80 231.77 217.80 234.16 C 217.80 236.55 219.06 238.58 220.55 238.58 Z" stroke-linecap="round"/>
</g>
		<g id="c">
<path style="stroke: rgb(193,193,193); stroke-width: 0; stroke-dasharray: none; stroke-linecap: butt; stroke-dashoffset: 0; stroke-linejoin: miter; stroke-miterlimit: 4; fill: rgb(24,255,166); fill-rule: nonzero; opacity: 1;" transform="matrix(-1.155407 0 0 -1.155407 564.171103 553.76149) matrix(1 0 0 1 91.98 29.71)  translate(-220.55, -168.92)" d="M 220.55 164.50 C 219.06 164.50 217.80 166.53 217.80 168.92 C 217.80 171.31 219.06 173.34 220.55 173.34 C 222.04 173.34 223.30 171.31 223.30 168.92 C 223.30 166.53 222.04 164.50 220.55 164.50 Z" stroke-linecap="round"/>
</g>
		<g id="c">
<path style="stroke: rgb(193,193,193); stroke-width: 0; stroke-dasharray: none; stroke-linecap: butt; stroke-dashoffset: 0; stroke-linejoin: miter; stroke-miterlimit: 4; fill: rgb(24,255,166); fill-rule: nonzero; opacity: 1;" transform="matrix(-1.155407 0 0 -1.155407 564.171103 553.76149) matrix(1 0 0 1 91.98 13.07)  translate(-220.55, -152.28)" d="M 220.55 147.86 C 219.06 147.86 217.80 149.89 217.80 152.28 C 217.80 154.67 219.06 156.70 220.55 156.70 C 222.04 156.70 223.30 154.67 223.30 152.28 C 223.30 149.89 222.04 147.86 220.55 147.86 Z" stroke-linecap="round"/>
</g>
		<g id="c">
<path style="stroke: rgb(193,193,193); stroke-width: 0; stroke-dasharray: none; stroke-linecap: butt; stroke-dashoffset: 0; stroke-linejoin: miter; stroke-miterlimit: 4; fill: rgb(24,255,166); fill-rule: nonzero; opacity: 1;" transform="matrix(-1.155407 0 0 -1.155407 564.171103 553.76149) matrix(1 0 0 1 91.98 -3.24)  translate(-220.55, -135.97)" d="M 220.55 131.55 C 219.06 131.55 217.80 133.58 217.80 135.97 C 217.80 138.36 219.06 140.39 220.55 140.39 C 222.04 140.39 223.30 138.36 223.30 135.97 C 223.30 133.58 222.04 131.55 220.55 131.55 Z" stroke-linecap="round"/>
</g>
		<g id="c">
<path style="stroke: rgb(193,193,193); stroke-width: 0; stroke-dasharray: none; stroke-linecap: butt; stroke-dashoffset: 0; stroke-linejoin: miter; stroke-miterlimit: 4; fill: rgb(24,255,166); fill-rule: nonzero; opacity: 1;" transform="matrix(-1.155407 0 0 -1.155407 564.171103 553.76149) matrix(1 0 0 1 91.98 46.02)  translate(-220.55, -185.23)" d="M 220.55 180.81 C 219.06 180.81 217.80 182.84 217.80 185.23 C 217.80 187.62 219.06 189.65 220.55 189.65 C 222.04 189.65 223.30 187.62 223.30 185.23 C 223.30 182.84 222.04 180.81 220.55 180.81 Z" stroke-linecap="round"/>
</g>
		<g id="c">
<ellipse style="stroke: rgb(193,193,193); stroke-width: 0; stroke-dasharray: none; stroke-linecap: butt; stroke-dashoffset: 0; stroke-linejoin: miter; stroke-miterlimit: 4; fill: rgb(24,255,166); fill-rule: nonzero; opacity: 1;" cx="0" cy="0" rx="2.75" ry="4.42" transform="matrix(-1.155407 0 0 -1.155407 564.171103 553.76149) matrix(1 0 0 1 71.38 6.14)"/>
</g>
		<g id="c">
<path style="stroke: rgb(193,193,193); stroke-width: 0; stroke-dasharray: none; stroke-linecap: butt; stroke-dashoffset: 0; stroke-linejoin: miter; stroke-miterlimit: 4; fill: rgb(24,255,166); fill-rule: nonzero; opacity: 1;" transform="matrix(-1.155407 0 0 -1.155407 564.171103 553.76149) matrix(1 0 0 1 71.38 39.08)  translate(-199.95, -178.29)" d="M 199.95 173.87 C 198.46 173.87 197.20 175.90 197.20 178.29 C 197.20 180.68 198.46 182.71 199.95 182.71 C 201.44 182.71 202.70 180.68 202.70 178.29 C 202.70 175.90 201.44 173.87 199.95 173.87 Z" stroke-linecap="round"/>
</g>
		<g id="c">
<path style="stroke: rgb(193,193,193); stroke-width: 0; stroke-dasharray: none; stroke-linecap: butt; stroke-dashoffset: 0; stroke-linejoin: miter; stroke-miterlimit: 4; fill: rgb(24,255,166); fill-rule: nonzero; opacity: 1;" transform="matrix(-1.155407 0 0 -1.155407 564.171103 553.76149) matrix(1 0 0 1 71.38 22.44)  translate(-199.95, -161.65)" d="M 199.95 157.23 C 198.46 157.23 197.20 159.26 197.20 161.65 C 197.20 164.04 198.46 166.07 199.95 166.07 C 201.44 166.07 202.70 164.04 202.70 161.65 C 202.70 159.26 201.44 157.23 199.95 157.23 Z" stroke-linecap="round"/>
</g>
		<g id="c">
<path style="stroke: rgb(193,193,193); stroke-width: 0; stroke-dasharray: none; stroke-linecap: butt; stroke-dashoffset: 0; stroke-linejoin: miter; stroke-miterlimit: 4; fill: rgb(24,255,166); fill-rule: nonzero; opacity: 1;" transform="matrix(-1.155407 0 0 -1.155407 564.171103 553.76149) matrix(1 0 0 1 81.68 17.76)  translate(-210.25, -156.97)" d="M 210.25 152.55 C 208.76 152.55 207.50 154.58 207.50 156.97 C 207.50 159.36 208.76 161.39 210.25 161.39 C 211.74 161.39 213.00 159.36 213.00 156.97 C 213.00 154.58 211.74 152.55 210.25 152.55 Z" stroke-linecap="round"/>
</g>
		<g id="c">
<path style="stroke: rgb(193,193,193); stroke-width: 0; stroke-dasharray: none; stroke-linecap: butt; stroke-dashoffset: 0; stroke-linejoin: miter; stroke-miterlimit: 4; fill: rgb(24,255,166); fill-rule: nonzero; opacity: 1;" transform="matrix(-1.155407 0 0 -1.155407 564.171103 553.76149) matrix(1 0 0 1 71.38 71.7)  translate(-199.95, -210.91)" d="M 199.95 206.49 C 198.46 206.49 197.20 208.52 197.20 210.91 C 197.20 213.30 198.46 215.33 199.95 215.33 C 201.44 215.33 202.70 213.30 202.70 210.91 C 202.70 208.52 201.44 206.49 199.95 206.49 Z" stroke-linecap="round"/>
</g>
		<g id="c">
<ellipse style="stroke: rgb(193,193,193); stroke-width: 0; stroke-dasharray: none; stroke-linecap: butt; stroke-dashoffset: 0; stroke-linejoin: miter; stroke-miterlimit: 4; fill: rgb(24,255,166); fill-rule: nonzero; opacity: 1;" cx="0" cy="0" rx="2.75" ry="4.42" transform="matrix(-1.155407 0 0 -1.155407 564.171103 553.76149) matrix(1 0 0 1 102.28 -56.84)"/>
</g>
		<g id="c">
<path style="stroke: rgb(193,193,193); stroke-width: 0; stroke-dasharray: none; stroke-linecap: butt; stroke-dashoffset: 0; stroke-linejoin: miter; stroke-miterlimit: 4; fill: rgb(24,255,166); fill-rule: nonzero; opacity: 1;" transform="matrix(-1.155407 0 0 -1.155407 564.171103 553.76149) matrix(1 0 0 1 71.38 -26.48)  translate(-199.95, -112.73)" d="M 199.95 108.31 C 198.46 108.31 197.20 110.34 197.20 112.73 C 197.20 115.12 198.46 117.15 199.95 117.15 C 201.44 117.15 202.70 115.12 202.70 112.73 C 202.70 110.34 201.44 108.31 199.95 108.31 Z" stroke-linecap="round"/>
</g>
		<g id="c">
<path style="stroke: rgb(193,193,193); stroke-width: 0; stroke-dasharray: none; stroke-linecap: butt; stroke-dashoffset: 0; stroke-linejoin: miter; stroke-miterlimit: 4; fill: rgb(24,255,166); fill-rule: nonzero; opacity: 1;" transform="matrix(-1.155407 0 0 -1.155407 564.171103 553.76149) matrix(1 0 0 1 71.38 -10.17)  translate(-199.95, -129.04)" d="M 199.95 124.62 C 198.46 124.62 197.20 126.65 197.20 129.04 C 197.20 131.43 198.46 133.46 199.95 133.46 C 201.44 133.46 202.70 131.43 202.70 129.04 C 202.70 126.65 201.44 124.62 199.95 124.62 Z" stroke-linecap="round"/>
</g>
		<g id="c">
<ellipse style="stroke: rgb(193,193,193); stroke-width: 0; stroke-dasharray: none; stroke-linecap: butt; stroke-dashoffset: 0; stroke-linejoin: miter; stroke-miterlimit: 4; fill: rgb(24,255,166); fill-rule: nonzero; opacity: 1;" cx="0" cy="0" rx="2.75" ry="4.42" transform="matrix(-1.155407 0 0 -1.155407 564.171103 553.76149) matrix(1 0 0 1 71.38 55.4)"/>
</g>
		<g id="c">
<ellipse style="stroke: rgb(193,193,193); stroke-width: 0; stroke-dasharray: none; stroke-linecap: butt; stroke-dashoffset: 0; stroke-linejoin: miter; stroke-miterlimit: 4; fill: rgb(24,255,166); fill-rule: nonzero; opacity: 1;" cx="0" cy="0" rx="2.75" ry="4.42" transform="matrix(-1.155407 0 0 -1.155407 564.171103 553.76149) matrix(1 0 0 1 81.68 -14.85)"/>
</g>
		<g id="c">
<path style="stroke: rgb(193,193,193); stroke-width: 0; stroke-dasharray: none; stroke-linecap: butt; stroke-dashoffset: 0; stroke-linejoin: miter; stroke-miterlimit: 4; fill: rgb(24,255,166); fill-rule: nonzero; opacity: 1;" transform="matrix(-1.155407 0 0 -1.155407 564.171103 553.76149) matrix(1 0 0 1 81.68 1.45)  translate(-210.25, -140.66)" d="M 210.25 136.24 C 208.76 136.24 207.50 138.27 207.50 140.66 C 207.50 143.05 208.76 145.08 210.25 145.08 C 211.74 145.08 213.00 143.05 213.00 140.66 C 213.00 138.27 211.74 136.24 210.25 136.24 Z" stroke-linecap="round"/>
</g>
		<g id="c">
<path style="stroke: rgb(193,193,193); stroke-width: 0; stroke-dasharray: none; stroke-linecap: butt; stroke-dashoffset: 0; stroke-linejoin: miter; stroke-miterlimit: 4; fill: rgb(24,255,166); fill-rule: nonzero; opacity: 1;" transform="matrix(-1.155407 0 0 -1.155407 564.171103 553.76149) matrix(1 0 0 1 71.38 88)  translate(-199.95, -227.21)" d="M 199.95 222.79 C 198.46 222.79 197.20 224.82 197.20 227.21 C 197.20 229.60 198.46 231.63 199.95 231.63 C 201.44 231.63 202.70 229.60 202.70 227.21 C 202.70 224.82 201.44 222.79 199.95 222.79 Z" stroke-linecap="round"/>
</g>
		<g id="c">
<path style="stroke: rgb(193,193,193); stroke-width: 0; stroke-dasharray: none; stroke-linecap: butt; stroke-dashoffset: 0; stroke-linejoin: miter; stroke-miterlimit: 4; fill: rgb(24,255,166); fill-rule: nonzero; opacity: 1;" transform="matrix(-1.155407 0 0 -1.155407 564.171103 553.76149) matrix(1 0 0 1 81.68 -31.16)  translate(-210.25, -108.05)" d="M 210.25 103.63 C 208.76 103.63 207.50 105.66 207.50 108.05 C 207.50 110.44 208.76 112.47 210.25 112.47 C 211.74 112.47 213.00 110.44 213.00 108.05 C 213.00 105.66 211.74 103.63 210.25 103.63 Z" stroke-linecap="round"/>
</g>
		<g id="c">
<path style="stroke: rgb(193,193,193); stroke-width: 0; stroke-dasharray: none; stroke-linecap: butt; stroke-dashoffset: 0; stroke-linejoin: miter; stroke-miterlimit: 4; fill: rgb(24,255,166); fill-rule: nonzero; opacity: 1;" transform="matrix(-1.155407 0 0 -1.155407 564.171103 553.76149) matrix(1 0 0 1 81.68 -47.47)  translate(-210.25, -91.74)" d="M 210.25 87.32 C 208.76 87.32 207.50 89.35 207.50 91.74 C 207.50 94.13 208.76 96.16 210.25 96.16 C 211.74 96.16 213.00 94.13 213.00 91.74 C 213.00 89.35 211.74 87.32 210.25 87.32 Z" stroke-linecap="round"/>
</g>
		<g id="c">
<path style="stroke: rgb(193,193,193); stroke-width: 0; stroke-dasharray: none; stroke-linecap: butt; stroke-dashoffset: 0; stroke-linejoin: miter; stroke-miterlimit: 4; fill: rgb(24,255,166); fill-rule: nonzero; opacity: 1;" transform="matrix(-1.155407 0 0 -1.155407 564.171103 553.76149) matrix(1 0 0 1 71.38 104.32)  translate(-199.95, -243.53)" d="M 199.95 247.95 C 201.44 247.95 202.70 245.92 202.70 243.53 C 202.70 241.14 201.44 239.11 199.95 239.11 C 198.46 239.11 197.20 241.14 197.20 243.53 C 197.20 245.92 198.46 247.95 199.95 247.95 Z" stroke-linecap="round"/>
</g>
		<g id="c">
<path style="stroke: rgb(193,193,193); stroke-width: 0; stroke-dasharray: none; stroke-linecap: butt; stroke-dashoffset: 0; stroke-linejoin: miter; stroke-miterlimit: 4; fill: rgb(24,255,166); fill-rule: nonzero; opacity: 1;" transform="matrix(-1.155407 0 0 -1.155407 564.171103 553.76149) matrix(1 0 0 1 122.88 -49.91)  translate(-251.45, -89.3)" d="M 251.45 84.88 C 249.96 84.88 248.70 86.91 248.70 89.30 C 248.70 91.69 249.96 93.72 251.45 93.72 C 252.94 93.72 254.20 91.69 254.20 89.30 C 254.20 86.91 252.94 84.88 251.45 84.88 Z" stroke-linecap="round"/>
</g>
		<g id="c">
<path style="stroke: rgb(193,193,193); stroke-width: 0; stroke-dasharray: none; stroke-linecap: butt; stroke-dashoffset: 0; stroke-linejoin: miter; stroke-miterlimit: 4; fill: rgb(24,255,166); fill-rule: nonzero; opacity: 1;" transform="matrix(-1.155407 0 0 -1.155407 564.171103 553.76149) matrix(1 0 0 1 71.38 -42.78)  translate(-199.95, -96.43)" d="M 199.95 92.01 C 198.46 92.01 197.20 94.04 197.20 96.43 C 197.20 98.82 198.46 100.85 199.95 100.85 C 201.44 100.85 202.70 98.82 202.70 96.43 C 202.70 94.04 201.44 92.01 199.95 92.01 Z" stroke-linecap="round"/>
</g>
		<g id="c">
<path style="stroke: rgb(193,193,193); stroke-width: 0; stroke-dasharray: none; stroke-linecap: butt; stroke-dashoffset: 0; stroke-linejoin: miter; stroke-miterlimit: 4; fill: rgb(24,255,166); fill-rule: nonzero; opacity: 1;" transform="matrix(-1.155407 0 0 -1.155407 564.171103 553.76149) matrix(1 0 0 1 122.88 -66.21)  translate(-251.45, -73)" d="M 251.45 77.42 C 252.94 77.42 254.20 75.39 254.20 73.00 C 254.20 70.61 252.94 68.58 251.45 68.58 C 249.96 68.58 248.70 70.61 248.70 73.00 C 248.70 75.39 249.96 77.42 251.45 77.42 Z" stroke-linecap="round"/>
</g>
		<g id="c">
<ellipse style="stroke: rgb(193,193,193); stroke-width: 0; stroke-dasharray: none; stroke-linecap: butt; stroke-dashoffset: 0; stroke-linejoin: miter; stroke-miterlimit: 4; fill: rgb(24,255,166); fill-rule: nonzero; opacity: 1;" cx="0" cy="0" rx="2.75" ry="4.42" transform="matrix(-1.155407 0 0 -1.155407 564.171103 553.76149) matrix(1 0 0 1 122.88 -17.29)"/>
</g>
		<g id="c">
<path style="stroke: rgb(193,193,193); stroke-width: 0; stroke-dasharray: none; stroke-linecap: butt; stroke-dashoffset: 0; stroke-linejoin: miter; stroke-miterlimit: 4; fill: rgb(24,255,166); fill-rule: nonzero; opacity: 1;" transform="matrix(-1.155407 0 0 -1.155407 564.171103 553.76149) matrix(1 0 0 1 122.88 -33.6)  translate(-251.45, -105.61)" d="M 251.45 101.19 C 249.96 101.19 248.70 103.22 248.70 105.61 C 248.70 108.00 249.96 110.03 251.45 110.03 C 252.94 110.03 254.20 108.00 254.20 105.61 C 254.20 103.22 252.94 101.19 251.45 101.19 Z" stroke-linecap="round"/>
</g>
		<g id="c">
<ellipse style="stroke: rgb(193,193,193); stroke-width: 0; stroke-dasharray: none; stroke-linecap: butt; stroke-dashoffset: 0; stroke-linejoin: miter; stroke-miterlimit: 4; fill: rgb(24,255,166); fill-rule: nonzero; opacity: 1;" cx="0" cy="0" rx="2.75" ry="4.42" transform="matrix(-1.155407 0 0 -1.155407 564.171103 553.76149) matrix(1 0 0 1 112.58 52.95)"/>
</g>
		<g id="c">
<path style="stroke: rgb(193,193,193); stroke-width: 0; stroke-dasharray: none; stroke-linecap: butt; stroke-dashoffset: 0; stroke-linejoin: miter; stroke-miterlimit: 4; fill: rgb(24,255,166); fill-rule: nonzero; opacity: 1;" transform="matrix(-1.155407 0 0 -1.155407 564.171103 553.76149) matrix(1 0 0 1 112.58 85.57)  translate(-241.15, -224.78)" d="M 241.15 229.20 C 242.64 229.20 243.90 227.17 243.90 224.78 C 243.90 222.39 242.64 220.36 241.15 220.36 C 239.66 220.36 238.40 222.39 238.40 224.78 C 238.40 227.17 239.66 229.20 241.15 229.20 Z" stroke-linecap="round"/>
</g>
		<g id="c">
<path style="stroke: rgb(193,193,193); stroke-width: 0; stroke-dasharray: none; stroke-linecap: butt; stroke-dashoffset: 0; stroke-linejoin: miter; stroke-miterlimit: 4; fill: rgb(24,255,166); fill-rule: nonzero; opacity: 1;" transform="matrix(-1.155407 0 0 -1.155407 564.171103 553.76149) matrix(1 0 0 1 112.58 69.26)  translate(-241.15, -208.47)" d="M 241.15 204.05 C 239.66 204.05 238.40 206.08 238.40 208.47 C 238.40 210.86 239.66 212.89 241.15 212.89 C 242.64 212.89 243.90 210.86 243.90 208.47 C 243.90 206.08 242.64 204.05 241.15 204.05 Z" stroke-linecap="round"/>
</g>
		<g id="c">
<path style="stroke: rgb(193,193,193); stroke-width: 0; stroke-dasharray: none; stroke-linecap: butt; stroke-dashoffset: 0; stroke-linejoin: miter; stroke-miterlimit: 4; fill: rgb(24,255,166); fill-rule: nonzero; opacity: 1;" transform="matrix(-1.155407 0 0 -1.155407 564.171103 553.76149) matrix(1 0 0 1 122.88 80.88)  translate(-251.45, -220.09)" d="M 251.45 215.67 C 249.96 215.67 248.70 217.70 248.70 220.09 C 248.70 222.48 249.96 224.51 251.45 224.51 C 252.94 224.51 254.20 222.48 254.20 220.09 C 254.20 217.70 252.94 215.67 251.45 215.67 Z" stroke-linecap="round"/>
</g>
		<g id="c">
<path style="stroke: rgb(193,193,193); stroke-width: 0; stroke-dasharray: none; stroke-linecap: butt; stroke-dashoffset: 0; stroke-linejoin: miter; stroke-miterlimit: 4; fill: rgb(24,255,166); fill-rule: nonzero; opacity: 1;" transform="matrix(-1.155407 0 0 -1.155407 564.171103 553.76149) matrix(1 0 0 1 122.88 48.26)  translate(-251.45, -187.47)" d="M 251.45 183.05 C 249.96 183.05 248.70 185.08 248.70 187.47 C 248.70 189.86 249.96 191.89 251.45 191.89 C 252.94 191.89 254.20 189.86 254.20 187.47 C 254.20 185.08 252.94 183.05 251.45 183.05 Z" stroke-linecap="round"/>
</g>
		<g id="c">
<path style="stroke: rgb(193,193,193); stroke-width: 0; stroke-dasharray: none; stroke-linecap: butt; stroke-dashoffset: 0; stroke-linejoin: miter; stroke-miterlimit: 4; fill: rgb(24,255,166); fill-rule: nonzero; opacity: 1;" transform="matrix(-1.155407 0 0 -1.155407 564.171103 553.76149) matrix(1 0 0 1 122.88 64.57)  translate(-251.45, -203.78)" d="M 251.45 199.36 C 249.96 199.36 248.70 201.39 248.70 203.78 C 248.70 206.17 249.96 208.20 251.45 208.20 C 252.94 208.20 254.20 206.17 254.20 203.78 C 254.20 201.39 252.94 199.36 251.45 199.36 Z" stroke-linecap="round"/>
</g>
		<g id="c">
<path style="stroke: rgb(193,193,193); stroke-width: 0; stroke-dasharray: none; stroke-linecap: butt; stroke-dashoffset: 0; stroke-linejoin: miter; stroke-miterlimit: 4; fill: rgb(24,255,166); fill-rule: nonzero; opacity: 1;" transform="matrix(-1.155407 0 0 -1.155407 564.171103 553.76149) matrix(1 0 0 1 112.58 36.64)  translate(-241.15, -175.85)" d="M 241.15 171.43 C 239.66 171.43 238.40 173.46 238.40 175.85 C 238.40 178.24 239.66 180.27 241.15 180.27 C 242.64 180.27 243.90 178.24 243.90 175.85 C 243.90 173.46 242.64 171.43 241.15 171.43 Z" stroke-linecap="round"/>
</g>
		<g id="c">
<path style="stroke: rgb(193,193,193); stroke-width: 0; stroke-dasharray: none; stroke-linecap: butt; stroke-dashoffset: 0; stroke-linejoin: miter; stroke-miterlimit: 4; fill: rgb(24,255,166); fill-rule: nonzero; opacity: 1;" transform="matrix(-1.155407 0 0 -1.155407 564.171103 553.76149) matrix(1 0 0 1 122.88 -0.99)  translate(-251.45, -138.22)" d="M 251.45 133.80 C 249.96 133.80 248.70 135.83 248.70 138.22 C 248.70 140.61 249.96 142.64 251.45 142.64 C 252.94 142.64 254.20 140.61 254.20 138.22 C 254.20 135.83 252.94 133.80 251.45 133.80 Z" stroke-linecap="round"/>
</g>
		<g id="c">
<path style="stroke: rgb(193,193,193); stroke-width: 0; stroke-dasharray: none; stroke-linecap: butt; stroke-dashoffset: 0; stroke-linejoin: miter; stroke-miterlimit: 4; fill: rgb(24,255,166); fill-rule: nonzero; opacity: 1;" transform="matrix(-1.155407 0 0 -1.155407 564.171103 553.76149) matrix(1 0 0 1 122.88 15.65)  translate(-251.45, -154.86)" d="M 251.45 150.44 C 249.96 150.44 248.70 152.47 248.70 154.86 C 248.70 157.25 249.96 159.28 251.45 159.28 C 252.94 159.28 254.20 157.25 254.20 154.86 C 254.20 152.47 252.94 150.44 251.45 150.44 Z" stroke-linecap="round"/>
</g>
		<g id="c">
<ellipse style="stroke: rgb(193,193,193); stroke-width: 0; stroke-dasharray: none; stroke-linecap: butt; stroke-dashoffset: 0; stroke-linejoin: miter; stroke-miterlimit: 4; fill: rgb(24,255,166); fill-rule: nonzero; opacity: 1;" cx="0" cy="0" rx="2.75" ry="4.42" transform="matrix(-1.155407 0 0 -1.155407 564.171103 553.76149) matrix(1 0 0 1 122.88 31.96)"/>
</g>
		<g id="c">
<path style="stroke: rgb(193,193,193); stroke-width: 0; stroke-dasharray: none; stroke-linecap: butt; stroke-dashoffset: 0; stroke-linejoin: miter; stroke-miterlimit: 4; fill: rgb(24,255,166); fill-rule: nonzero; opacity: 1;" transform="matrix(-1.155407 0 0 -1.155407 564.171103 553.76149) matrix(1 0 0 1 102.28 25.02)  translate(-230.85, -164.23)" d="M 230.85 159.81 C 229.36 159.81 228.10 161.84 228.10 164.23 C 228.10 166.62 229.36 168.65 230.85 168.65 C 232.34 168.65 233.60 166.62 233.60 164.23 C 233.60 161.84 232.34 159.81 230.85 159.81 Z" stroke-linecap="round"/>
</g>
		<g id="c">
<path style="stroke: rgb(193,193,193); stroke-width: 0; stroke-dasharray: none; stroke-linecap: butt; stroke-dashoffset: 0; stroke-linejoin: miter; stroke-miterlimit: 4; fill: rgb(24,255,166); fill-rule: nonzero; opacity: 1;" transform="matrix(-1.155407 0 0 -1.155407 564.171103 553.76149) matrix(1 0 0 1 112.58 20.34)  translate(-241.15, -159.55)" d="M 241.15 155.13 C 239.66 155.13 238.40 157.16 238.40 159.55 C 238.40 161.94 239.66 163.97 241.15 163.97 C 242.64 163.97 243.90 161.94 243.90 159.55 C 243.90 157.16 242.64 155.13 241.15 155.13 Z" stroke-linecap="round"/>
</g>
		<g id="c">
<path style="stroke: rgb(193,193,193); stroke-width: 0; stroke-dasharray: none; stroke-linecap: butt; stroke-dashoffset: 0; stroke-linejoin: miter; stroke-miterlimit: 4; fill: rgb(24,255,166); fill-rule: nonzero; opacity: 1;" transform="matrix(-1.155407 0 0 -1.155407 564.171103 553.76149) matrix(1 0 0 1 102.28 -40.54)  translate(-230.85, -98.67)" d="M 230.85 94.25 C 229.36 94.25 228.10 96.28 228.10 98.67 C 228.10 101.06 229.36 103.09 230.85 103.09 C 232.34 103.09 233.60 101.06 233.60 98.67 C 233.60 96.28 232.34 94.25 230.85 94.25 Z" stroke-linecap="round"/>
</g>
		<g id="c">
<path style="stroke: rgb(193,193,193); stroke-width: 0; stroke-dasharray: none; stroke-linecap: butt; stroke-dashoffset: 0; stroke-linejoin: miter; stroke-miterlimit: 4; fill: rgb(24,255,166); fill-rule: nonzero; opacity: 1;" transform="matrix(-1.155407 0 0 -1.155407 564.171103 553.76149) matrix(1 0 0 1 102.28 57.64)  translate(-230.85, -196.85)" d="M 230.85 192.43 C 229.36 192.43 228.10 194.46 228.10 196.85 C 228.10 199.24 229.36 201.27 230.85 201.27 C 232.34 201.27 233.60 199.24 233.60 196.85 C 233.60 194.46 232.34 192.43 230.85 192.43 Z" stroke-linecap="round"/>
</g>
		<g id="c">
<ellipse style="stroke: rgb(193,193,193); stroke-width: 0; stroke-dasharray: none; stroke-linecap: butt; stroke-dashoffset: 0; stroke-linejoin: miter; stroke-miterlimit: 4; fill: rgb(24,255,166); fill-rule: nonzero; opacity: 1;" cx="0" cy="0" rx="2.75" ry="4.42" transform="matrix(-1.155407 0 0 -1.155407 564.171103 553.76149) matrix(1 0 0 1 102.28 8.39)"/>
</g>
		<g id="c">
<path style="stroke: rgb(193,193,193); stroke-width: 0; stroke-dasharray: none; stroke-linecap: butt; stroke-dashoffset: 0; stroke-linejoin: miter; stroke-miterlimit: 4; fill: rgb(24,255,166); fill-rule: nonzero; opacity: 1;" transform="matrix(-1.155407 0 0 -1.155407 564.171103 553.76149) matrix(1 0 0 1 102.28 -24.23)  translate(-230.85, -114.98)" d="M 230.85 110.56 C 229.36 110.56 228.10 112.59 228.10 114.98 C 228.10 117.37 229.36 119.40 230.85 119.40 C 232.34 119.40 233.60 117.37 233.60 114.98 C 233.60 112.59 232.34 110.56 230.85 110.56 Z" stroke-linecap="round"/>
</g>
		<g id="c">
<path style="stroke: rgb(193,193,193); stroke-width: 0; stroke-dasharray: none; stroke-linecap: butt; stroke-dashoffset: 0; stroke-linejoin: miter; stroke-miterlimit: 4; fill: rgb(24,255,166); fill-rule: nonzero; opacity: 1;" transform="matrix(-1.155407 0 0 -1.155407 564.171103 553.76149) matrix(1 0 0 1 102.28 -7.92)  translate(-230.85, -131.29)" d="M 230.85 126.87 C 229.36 126.87 228.10 128.90 228.10 131.29 C 228.10 133.68 229.36 135.71 230.85 135.71 C 232.34 135.71 233.60 133.68 233.60 131.29 C 233.60 128.90 232.34 126.87 230.85 126.87 Z" stroke-linecap="round"/>
</g>
		<g id="c">
<ellipse style="stroke: rgb(193,193,193); stroke-width: 0; stroke-dasharray: none; stroke-linecap: butt; stroke-dashoffset: 0; stroke-linejoin: miter; stroke-miterlimit: 4; fill: rgb(24,255,166); fill-rule: nonzero; opacity: 1;" cx="0" cy="0" rx="2.75" ry="4.42" transform="matrix(-1.155407 0 0 -1.155407 564.171103 553.76149) matrix(1 0 0 1 102.28 73.95)"/>
</g>
		<g id="c">
<path style="stroke: rgb(193,193,193); stroke-width: 0; stroke-dasharray: none; stroke-linecap: butt; stroke-dashoffset: 0; stroke-linejoin: miter; stroke-miterlimit: 4; fill: rgb(24,255,166); fill-rule: nonzero; opacity: 1;" transform="matrix(-1.155407 0 0 -1.155407 564.171103 553.76149) matrix(1 0 0 1 102.28 41.33)  translate(-230.85, -180.54)" d="M 230.85 176.12 C 229.36 176.12 228.10 178.15 228.10 180.54 C 228.10 182.93 229.36 184.96 230.85 184.96 C 232.34 184.96 233.60 182.93 233.60 180.54 C 233.60 178.15 232.34 176.12 230.85 176.12 Z" stroke-linecap="round"/>
</g>
		<g id="c">
<path style="stroke: rgb(193,193,193); stroke-width: 0; stroke-dasharray: none; stroke-linecap: butt; stroke-dashoffset: 0; stroke-linejoin: miter; stroke-miterlimit: 4; fill: rgb(24,255,166); fill-rule: nonzero; opacity: 1;" transform="matrix(-1.155407 0 0 -1.155407 564.171103 553.76149) matrix(1 0 0 1 112.58 -28.92)  translate(-241.15, -110.29)" d="M 241.15 105.87 C 239.66 105.87 238.40 107.90 238.40 110.29 C 238.40 112.68 239.66 114.71 241.15 114.71 C 242.64 114.71 243.90 112.68 243.90 110.29 C 243.90 107.90 242.64 105.87 241.15 105.87 Z" stroke-linecap="round"/>
</g>
		<g id="c">
<path style="stroke: rgb(193,193,193); stroke-width: 0; stroke-dasharray: none; stroke-linecap: butt; stroke-dashoffset: 0; stroke-linejoin: miter; stroke-miterlimit: 4; fill: rgb(24,255,166); fill-rule: nonzero; opacity: 1;" transform="matrix(-1.155407 0 0 -1.155407 564.171103 553.76149) matrix(1 0 0 1 112.58 -12.61)  translate(-241.15, -126.6)" d="M 241.15 122.18 C 239.66 122.18 238.40 124.21 238.40 126.60 C 238.40 128.99 239.66 131.02 241.15 131.02 C 242.64 131.02 243.90 128.99 243.90 126.60 C 243.90 124.21 242.64 122.18 241.15 122.18 Z" stroke-linecap="round"/>
</g>
		<g id="c">
<ellipse style="stroke: rgb(193,193,193); stroke-width: 0; stroke-dasharray: none; stroke-linecap: butt; stroke-dashoffset: 0; stroke-linejoin: miter; stroke-miterlimit: 4; fill: rgb(24,255,166); fill-rule: nonzero; opacity: 1;" cx="0" cy="0" rx="2.75" ry="4.42" transform="matrix(-1.155407 0 0 -1.155407 564.171103 553.76149) matrix(1 0 0 1 112.58 3.7)"/>
</g>
		<g id="c">
<path style="stroke: rgb(193,193,193); stroke-width: 0; stroke-dasharray: none; stroke-linecap: butt; stroke-dashoffset: 0; stroke-linejoin: miter; stroke-miterlimit: 4; fill: rgb(24,255,166); fill-rule: nonzero; opacity: 1;" transform="matrix(-1.155407 0 0 -1.155407 564.171103 553.76149) matrix(1 0 0 1 102.28 90.25)  translate(-230.85, -229.46)" d="M 230.85 225.04 C 229.36 225.04 228.10 227.07 228.10 229.46 C 228.10 231.85 229.36 233.88 230.85 233.88 C 232.34 233.88 233.60 231.85 233.60 229.46 C 233.60 227.07 232.34 225.04 230.85 225.04 Z" stroke-linecap="round"/>
</g>
		<g id="c">
<path style="stroke: rgb(193,193,193); stroke-width: 0; stroke-dasharray: none; stroke-linecap: butt; stroke-dashoffset: 0; stroke-linejoin: miter; stroke-miterlimit: 4; fill: rgb(24,255,166); fill-rule: nonzero; opacity: 1;" transform="matrix(-1.155407 0 0 -1.155407 564.171103 553.76149) matrix(1 0 0 1 112.58 -45.22)  translate(-241.15, -93.99)" d="M 241.15 89.57 C 239.66 89.57 238.40 91.60 238.40 93.99 C 238.40 96.38 239.66 98.41 241.15 98.41 C 242.64 98.41 243.90 96.38 243.90 93.99 C 243.90 91.60 242.64 89.57 241.15 89.57 Z" stroke-linecap="round"/>
</g>
		<g id="c">
<path style="stroke: rgb(193,193,193); stroke-width: 0; stroke-dasharray: none; stroke-linecap: butt; stroke-dashoffset: 0; stroke-linejoin: miter; stroke-miterlimit: 4; fill: rgb(24,255,166); fill-rule: nonzero; opacity: 1;" transform="matrix(-1.155407 0 0 -1.155407 564.171103 553.76149) matrix(1 0 0 1 112.58 -61.53)  translate(-241.15, -77.68)" d="M 241.15 73.26 C 239.66 73.26 238.40 75.29 238.40 77.68 C 238.40 80.07 239.66 82.10 241.15 82.10 C 242.64 82.10 243.90 80.07 243.90 77.68 C 243.90 75.29 242.64 73.26 241.15 73.26 Z" stroke-linecap="round"/>
</g>
		<g id="c">
<path style="stroke: rgb(193,193,193); stroke-width: 0; stroke-dasharray: none; stroke-linecap: butt; stroke-dashoffset: 0; stroke-linejoin: miter; stroke-miterlimit: 4; fill: rgb(24,255,166); fill-rule: nonzero; opacity: 1;" transform="matrix(-1.155407 0 0 -1.155407 564.171103 553.76149) matrix(1 0 0 1 19.36 111.36)  translate(-147.93, -250.57)" d="M 147.93 246.15 C 146.44 246.15 145.18 248.18 145.18 250.57 C 145.18 252.96 146.44 254.99 147.93 254.99 C 149.42 254.99 150.68 252.96 150.68 250.57 C 150.68 248.18 149.42 246.15 147.93 246.15 Z" stroke-linecap="round"/>
</g>
		<g id="c">
<path style="stroke: rgb(193,193,193); stroke-width: 0; stroke-dasharray: none; stroke-linecap: butt; stroke-dashoffset: 0; stroke-linejoin: miter; stroke-miterlimit: 4; fill: rgb(24,255,166); fill-rule: nonzero; opacity: 1;" transform="matrix(-1.155407 0 0 -1.155407 564.171103 553.76149) matrix(1 0 0 1 19.36 127.67)  translate(-147.93, -266.88)" d="M 147.93 262.46 C 146.44 262.46 145.18 264.49 145.18 266.88 C 145.18 269.27 146.44 271.30 147.93 271.30 C 149.42 271.30 150.68 269.27 150.68 266.88 C 150.68 264.49 149.42 262.46 147.93 262.46 Z" stroke-linecap="round"/>
</g>
		<g id="c">
<path style="stroke: rgb(193,193,193); stroke-width: 0; stroke-dasharray: none; stroke-linecap: butt; stroke-dashoffset: 0; stroke-linejoin: miter; stroke-miterlimit: 4; fill: rgb(24,255,166); fill-rule: nonzero; opacity: 1;" transform="matrix(-1.155407 0 0 -1.155407 564.171103 553.76149) matrix(1 0 0 1 29.65 -24.11)  translate(-158.22, -115.1)" d="M 158.22 110.68 C 156.73 110.68 155.47 112.71 155.47 115.10 C 155.47 117.49 156.73 119.52 158.22 119.52 C 159.71 119.52 160.97 117.49 160.97 115.10 C 160.97 112.71 159.71 110.68 158.22 110.68 Z" stroke-linecap="round"/>
</g>
		<g id="c">
<ellipse style="stroke: rgb(193,193,193); stroke-width: 0; stroke-dasharray: none; stroke-linecap: butt; stroke-dashoffset: 0; stroke-linejoin: miter; stroke-miterlimit: 4; fill: rgb(24,255,166); fill-rule: nonzero; opacity: 1;" cx="0" cy="0" rx="2.75" ry="4.42" transform="matrix(-1.155407 0 0 -1.155407 564.171103 553.76149) matrix(1 0 0 1 29.65 -7.8)"/>
</g>
		<g id="c">
<path style="stroke: rgb(193,193,193); stroke-width: 0; stroke-dasharray: none; stroke-linecap: butt; stroke-dashoffset: 0; stroke-linejoin: miter; stroke-miterlimit: 4; fill: rgb(24,255,166); fill-rule: nonzero; opacity: 1;" transform="matrix(-1.155407 0 0 -1.155407 564.171103 553.76149) matrix(1 0 0 1 29.65 8.5)  translate(-158.22, -147.71)" d="M 158.22 143.29 C 156.73 143.29 155.47 145.32 155.47 147.71 C 155.47 150.10 156.73 152.13 158.22 152.13 C 159.71 152.13 160.97 150.10 160.97 147.71 C 160.97 145.32 159.71 143.29 158.22 143.29 Z" stroke-linecap="round"/>
</g>
		<g id="c">
<path style="stroke: rgb(193,193,193); stroke-width: 0; stroke-dasharray: none; stroke-linecap: butt; stroke-dashoffset: 0; stroke-linejoin: miter; stroke-miterlimit: 4; fill: rgb(24,255,166); fill-rule: nonzero; opacity: 1;" transform="matrix(-1.155407 0 0 -1.155407 564.171103 553.76149) matrix(1 0 0 1 19.36 78.75)  translate(-147.93, -217.96)" d="M 147.93 213.54 C 146.44 213.54 145.18 215.57 145.18 217.96 C 145.18 220.35 146.44 222.38 147.93 222.38 C 149.42 222.38 150.68 220.35 150.68 217.96 C 150.68 215.57 149.42 213.54 147.93 213.54 Z" stroke-linecap="round"/>
</g>
		<g id="c">
<path style="stroke: rgb(193,193,193); stroke-width: 0; stroke-dasharray: none; stroke-linecap: butt; stroke-dashoffset: 0; stroke-linejoin: miter; stroke-miterlimit: 4; fill: rgb(24,255,166); fill-rule: nonzero; opacity: 1;" transform="matrix(-1.155407 0 0 -1.155407 564.171103 553.76149) matrix(1 0 0 1 9.05 -14.73)  translate(-137.62, -124.48)" d="M 137.62 120.06 C 136.13 120.06 134.87 122.09 134.87 124.48 C 134.87 126.87 136.13 128.90 137.62 128.90 C 139.11 128.90 140.37 126.87 140.37 124.48 C 140.37 122.09 139.11 120.06 137.62 120.06 Z" stroke-linecap="round"/>
</g>
		<g id="c">
<path style="stroke: rgb(193,193,193); stroke-width: 0; stroke-dasharray: none; stroke-linecap: butt; stroke-dashoffset: 0; stroke-linejoin: miter; stroke-miterlimit: 4; fill: rgb(24,255,166); fill-rule: nonzero; opacity: 1;" transform="matrix(-1.155407 0 0 -1.155407 564.171103 553.76149) matrix(1 0 0 1 19.36 95.06)  translate(-147.93, -234.27)" d="M 147.93 229.85 C 146.44 229.85 145.18 231.88 145.18 234.27 C 145.18 236.66 146.44 238.69 147.93 238.69 C 149.42 238.69 150.68 236.66 150.68 234.27 C 150.68 231.88 149.42 229.85 147.93 229.85 Z" stroke-linecap="round"/>
</g>
		<g id="c">
<path style="stroke: rgb(193,193,193); stroke-width: 0; stroke-dasharray: none; stroke-linecap: butt; stroke-dashoffset: 0; stroke-linejoin: miter; stroke-miterlimit: 4; fill: rgb(24,255,166); fill-rule: nonzero; opacity: 1;" transform="matrix(-1.155407 0 0 -1.155407 564.171103 553.76149) matrix(1 0 0 1 29.65 24.81)  translate(-158.22, -164.02)" d="M 158.22 159.60 C 156.73 159.60 155.47 161.63 155.47 164.02 C 155.47 166.41 156.73 168.44 158.22 168.44 C 159.71 168.44 160.97 166.41 160.97 164.02 C 160.97 161.63 159.71 159.60 158.22 159.60 Z" stroke-linecap="round"/>
</g>
		<g id="c">
<path style="stroke: rgb(193,193,193); stroke-width: 0; stroke-dasharray: none; stroke-linecap: butt; stroke-dashoffset: 0; stroke-linejoin: miter; stroke-miterlimit: 4; fill: rgb(24,255,166); fill-rule: nonzero; opacity: 1;" transform="matrix(-1.155407 0 0 -1.155407 564.171103 553.76149) matrix(1 0 0 1 29.65 90.37)  translate(-158.22, -229.58)" d="M 158.22 225.16 C 156.73 225.16 155.47 227.19 155.47 229.58 C 155.47 231.97 156.73 234.00 158.22 234.00 C 159.71 234.00 160.97 231.97 160.97 229.58 C 160.97 227.19 159.71 225.16 158.22 225.16 Z" stroke-linecap="round"/>
</g>
		<g id="c">
<path style="stroke: rgb(193,193,193); stroke-width: 0; stroke-dasharray: none; stroke-linecap: butt; stroke-dashoffset: 0; stroke-linejoin: miter; stroke-miterlimit: 4; fill: rgb(24,255,166); fill-rule: nonzero; opacity: 1;" transform="matrix(-1.155407 0 0 -1.155407 564.171103 553.76149) matrix(1 0 0 1 29.65 106.68)  translate(-158.22, -245.89)" d="M 158.22 241.47 C 156.73 241.47 155.47 243.50 155.47 245.89 C 155.47 248.28 156.73 250.31 158.22 250.31 C 159.71 250.31 160.97 248.28 160.97 245.89 C 160.97 243.50 159.71 241.47 158.22 241.47 Z" stroke-linecap="round"/>
</g>
		<g id="c">
<path style="stroke: rgb(193,193,193); stroke-width: 0; stroke-dasharray: none; stroke-linecap: butt; stroke-dashoffset: 0; stroke-linejoin: miter; stroke-miterlimit: 4; fill: rgb(24,255,166); fill-rule: nonzero; opacity: 1;" transform="matrix(-1.155407 0 0 -1.155407 564.171103 553.76149) matrix(1 0 0 1 29.65 74.07)  translate(-158.22, -213.28)" d="M 158.22 208.86 C 156.73 208.86 155.47 210.89 155.47 213.28 C 155.47 215.67 156.73 217.70 158.22 217.70 C 159.71 217.70 160.97 215.67 160.97 213.28 C 160.97 210.89 159.71 208.86 158.22 208.86 Z" stroke-linecap="round"/>
</g>
		<g id="c">
<ellipse style="stroke: rgb(193,193,193); stroke-width: 0; stroke-dasharray: none; stroke-linecap: butt; stroke-dashoffset: 0; stroke-linejoin: miter; stroke-miterlimit: 4; fill: rgb(24,255,166); fill-rule: nonzero; opacity: 1;" cx="0" cy="0" rx="2.75" ry="4.42" transform="matrix(-1.155407 0 0 -1.155407 564.171103 553.76149) matrix(1 0 0 1 19.36 62.45)"/>
</g>
		<g id="c">
<ellipse style="stroke: rgb(193,193,193); stroke-width: 0; stroke-dasharray: none; stroke-linecap: butt; stroke-dashoffset: 0; stroke-linejoin: miter; stroke-miterlimit: 4; fill: rgb(24,255,166); fill-rule: nonzero; opacity: 1;" cx="0" cy="0" rx="2.75" ry="4.42" transform="matrix(-1.155407 0 0 -1.155407 564.171103 553.76149) matrix(1 0 0 1 29.65 57.76)"/>
</g>
		<g id="c">
<path style="stroke: rgb(193,193,193); stroke-width: 0; stroke-dasharray: none; stroke-linecap: butt; stroke-dashoffset: 0; stroke-linejoin: miter; stroke-miterlimit: 4; fill: rgb(24,255,166); fill-rule: nonzero; opacity: 1;" transform="matrix(-1.155407 0 0 -1.155407 564.171103 553.76149) matrix(1 0 0 1 29.65 41.12)  translate(-158.22, -180.33)" d="M 158.22 175.91 C 156.73 175.91 155.47 177.94 155.47 180.33 C 155.47 182.72 156.73 184.75 158.22 184.75 C 159.71 184.75 160.97 182.72 160.97 180.33 C 160.97 177.94 159.71 175.91 158.22 175.91 Z" stroke-linecap="round"/>
</g>
		<g id="c">
<path style="stroke: rgb(193,193,193); stroke-width: 0; stroke-dasharray: none; stroke-linecap: butt; stroke-dashoffset: 0; stroke-linejoin: miter; stroke-miterlimit: 4; fill: rgb(24,255,166); fill-rule: nonzero; opacity: 1;" transform="matrix(-1.155407 0 0 -1.155407 564.171103 553.76149) matrix(1 0 0 1 9.05 50.49)  translate(-137.62, -189.7)" d="M 137.62 185.28 C 136.13 185.28 134.87 187.31 134.87 189.70 C 134.87 192.09 136.13 194.12 137.62 194.12 C 139.11 194.12 140.37 192.09 140.37 189.70 C 140.37 187.31 139.11 185.28 137.62 185.28 Z" stroke-linecap="round"/>
</g>
		<g id="c">
<path style="stroke: rgb(193,193,193); stroke-width: 0; stroke-dasharray: none; stroke-linecap: butt; stroke-dashoffset: 0; stroke-linejoin: miter; stroke-miterlimit: 4; fill: rgb(24,255,166); fill-rule: nonzero; opacity: 1;" transform="matrix(-1.155407 0 0 -1.155407 564.171103 553.76149) matrix(1 0 0 1 9.05 67.13)  translate(-137.62, -206.34)" d="M 137.62 201.92 C 136.13 201.92 134.87 203.95 134.87 206.34 C 134.87 208.73 136.13 210.76 137.62 210.76 C 139.11 210.76 140.37 208.73 140.37 206.34 C 140.37 203.95 139.11 201.92 137.62 201.92 Z" stroke-linecap="round"/>
</g>
		<g id="c">
<path style="stroke: rgb(193,193,193); stroke-width: 0; stroke-dasharray: none; stroke-linecap: butt; stroke-dashoffset: 0; stroke-linejoin: miter; stroke-miterlimit: 4; fill: rgb(24,255,166); fill-rule: nonzero; opacity: 1;" transform="matrix(-1.155407 0 0 -1.155407 564.171103 553.76149) matrix(1 0 0 1 9.05 99.74)  translate(-137.62, -238.95)" d="M 137.62 234.53 C 136.13 234.53 134.87 236.56 134.87 238.95 C 134.87 241.34 136.13 243.37 137.62 243.37 C 139.11 243.37 140.37 241.34 140.37 238.95 C 140.37 236.56 139.11 234.53 137.62 234.53 Z" stroke-linecap="round"/>
</g>
		<g id="c">
<path style="stroke: rgb(193,193,193); stroke-width: 0; stroke-dasharray: none; stroke-linecap: butt; stroke-dashoffset: 0; stroke-linejoin: miter; stroke-miterlimit: 4; fill: rgb(24,255,166); fill-rule: nonzero; opacity: 1;" transform="matrix(-1.155407 0 0 -1.155407 564.171103 553.76149) matrix(1 0 0 1 60.56 108.92)  translate(-189.13, -248.13)" d="M 189.13 243.71 C 187.64 243.71 186.38 245.74 186.38 248.13 C 186.38 250.52 187.64 252.55 189.13 252.55 C 190.62 252.55 191.88 250.52 191.88 248.13 C 191.88 245.74 190.62 243.71 189.13 243.71 Z" stroke-linecap="round"/>
</g>
		<g id="c">
<ellipse style="stroke: rgb(193,193,193); stroke-width: 0; stroke-dasharray: none; stroke-linecap: butt; stroke-dashoffset: 0; stroke-linejoin: miter; stroke-miterlimit: 4; fill: rgb(24,255,166); fill-rule: nonzero; opacity: 1;" cx="0" cy="0" rx="2.75" ry="4.42" transform="matrix(-1.155407 0 0 -1.155407 564.171103 553.76149) matrix(1 0 0 1 29.65 122.99)"/>
</g>
		<g id="c">
<path style="stroke: rgb(193,193,193); stroke-width: 0; stroke-dasharray: none; stroke-linecap: butt; stroke-dashoffset: 0; stroke-linejoin: miter; stroke-miterlimit: 4; fill: rgb(24,255,166); fill-rule: nonzero; opacity: 1;" transform="matrix(-1.155407 0 0 -1.155407 564.171103 553.76149) matrix(1 0 0 1 9.05 1.57)  translate(-137.62, -140.78)" d="M 137.62 136.36 C 136.13 136.36 134.87 138.39 134.87 140.78 C 134.87 143.17 136.13 145.20 137.62 145.20 C 139.11 145.20 140.37 143.17 140.37 140.78 C 140.37 138.39 139.11 136.36 137.62 136.36 Z" stroke-linecap="round"/>
</g>
		<g id="c">
<path style="stroke: rgb(193,193,193); stroke-width: 0; stroke-dasharray: none; stroke-linecap: butt; stroke-dashoffset: 0; stroke-linejoin: miter; stroke-miterlimit: 4; fill: rgb(24,255,166); fill-rule: nonzero; opacity: 1;" transform="matrix(-1.155407 0 0 -1.155407 564.171103 553.76149) matrix(1 0 0 1 9.05 17.88)  translate(-137.62, -157.09)" d="M 137.62 152.67 C 136.13 152.67 134.87 154.70 134.87 157.09 C 134.87 159.48 136.13 161.51 137.62 161.51 C 139.11 161.51 140.37 159.48 140.37 157.09 C 140.37 154.70 139.11 152.67 137.62 152.67 Z" stroke-linecap="round"/>
</g>
		<g id="c">
<ellipse style="stroke: rgb(193,193,193); stroke-width: 0; stroke-dasharray: none; stroke-linecap: butt; stroke-dashoffset: 0; stroke-linejoin: miter; stroke-miterlimit: 4; fill: rgb(24,255,166); fill-rule: nonzero; opacity: 1;" cx="0" cy="0" rx="2.75" ry="4.42" transform="matrix(-1.155407 0 0 -1.155407 564.171103 553.76149) matrix(1 0 0 1 9.05 34.19)"/>
</g>
		<g id="c">
<path style="stroke: rgb(193,193,193); stroke-width: 0; stroke-dasharray: none; stroke-linecap: butt; stroke-dashoffset: 0; stroke-linejoin: miter; stroke-miterlimit: 4; fill: rgb(24,255,166); fill-rule: nonzero; opacity: 1;" transform="matrix(-1.155407 0 0 -1.155407 564.171103 553.76149) matrix(1 0 0 1 19.36 -3.11)  translate(-147.93, -136.1)" d="M 147.93 131.68 C 146.44 131.68 145.18 133.71 145.18 136.10 C 145.18 138.49 146.44 140.52 147.93 140.52 C 149.42 140.52 150.68 138.49 150.68 136.10 C 150.68 133.71 149.42 131.68 147.93 131.68 Z" stroke-linecap="round"/>
</g>
		<g id="c">
<path style="stroke: rgb(193,193,193); stroke-width: 0; stroke-dasharray: none; stroke-linecap: butt; stroke-dashoffset: 0; stroke-linejoin: miter; stroke-miterlimit: 4; fill: rgb(24,255,166); fill-rule: nonzero; opacity: 1;" transform="matrix(-1.155407 0 0 -1.155407 564.171103 553.76149) matrix(1 0 0 1 19.36 45.8)  translate(-147.93, -185.01)" d="M 147.93 180.59 C 146.44 180.59 145.18 182.62 145.18 185.01 C 145.18 187.40 146.44 189.43 147.93 189.43 C 149.42 189.43 150.68 187.40 150.68 185.01 C 150.68 182.62 149.42 180.59 147.93 180.59 Z" stroke-linecap="round"/>
</g>
		<g id="c">
<ellipse style="stroke: rgb(193,193,193); stroke-width: 0; stroke-dasharray: none; stroke-linecap: butt; stroke-dashoffset: 0; stroke-linejoin: miter; stroke-miterlimit: 4; fill: rgb(24,255,166); fill-rule: nonzero; opacity: 1;" cx="0" cy="0" rx="2.75" ry="4.42" transform="matrix(-1.155407 0 0 -1.155407 564.171103 553.76149) matrix(1 0 0 1 19.36 13.2)"/>
</g>
		<g id="c">
<path style="stroke: rgb(193,193,193); stroke-width: 0; stroke-dasharray: none; stroke-linecap: butt; stroke-dashoffset: 0; stroke-linejoin: miter; stroke-miterlimit: 4; fill: rgb(24,255,166); fill-rule: nonzero; opacity: 1;" transform="matrix(-1.155407 0 0 -1.155407 564.171103 553.76149) matrix(1 0 0 1 19.36 29.5)  translate(-147.93, -168.71)" d="M 147.93 164.29 C 146.44 164.29 145.18 166.32 145.18 168.71 C 145.18 171.10 146.44 173.13 147.93 173.13 C 149.42 173.13 150.68 171.10 150.68 168.71 C 150.68 166.32 149.42 164.29 147.93 164.29 Z" stroke-linecap="round"/>
</g>
		<g id="c">
<path style="stroke: rgb(193,193,193); stroke-width: 0; stroke-dasharray: none; stroke-linecap: butt; stroke-dashoffset: 0; stroke-linejoin: miter; stroke-miterlimit: 4; fill: rgb(24,255,166); fill-rule: nonzero; opacity: 1;" transform="matrix(-1.155407 0 0 -1.155407 564.171103 553.76149) matrix(1 0 0 1 9.05 116.05)  translate(-137.62, -255.26)" d="M 137.62 250.84 C 136.13 250.84 134.87 252.87 134.87 255.26 C 134.87 257.65 136.13 259.68 137.62 259.68 C 139.11 259.68 140.37 257.65 140.37 255.26 C 140.37 252.87 139.11 250.84 137.62 250.84 Z" stroke-linecap="round"/>
</g>
		<g id="c">
<path style="stroke: rgb(193,193,193); stroke-width: 0; stroke-dasharray: none; stroke-linecap: butt; stroke-dashoffset: 0; stroke-linejoin: miter; stroke-miterlimit: 4; fill: rgb(24,255,166); fill-rule: nonzero; opacity: 1;" transform="matrix(-1.155407 0 0 -1.155407 564.171103 553.76149) matrix(1 0 0 1 9.05 132.37)  translate(-137.62, -271.58)" d="M 137.62 276.00 C 139.11 276.00 140.37 273.97 140.37 271.58 C 140.37 269.19 139.11 267.16 137.62 267.16 C 136.13 267.16 134.87 269.19 134.87 271.58 C 134.87 273.97 136.13 276.00 137.62 276.00 Z" stroke-linecap="round"/>
</g>
		<g id="c">
<path style="stroke: rgb(193,193,193); stroke-width: 0; stroke-dasharray: none; stroke-linecap: butt; stroke-dashoffset: 0; stroke-linejoin: miter; stroke-miterlimit: 4; fill: rgb(24,255,166); fill-rule: nonzero; opacity: 1;" transform="matrix(-1.155407 0 0 -1.155407 564.171103 553.76149) matrix(1 0 0 1 19.36 -19.42)  translate(-147.93, -119.79)" d="M 147.93 115.37 C 146.44 115.37 145.18 117.40 145.18 119.79 C 145.18 122.18 146.44 124.21 147.93 124.21 C 149.42 124.21 150.68 122.18 150.68 119.79 C 150.68 117.40 149.42 115.37 147.93 115.37 Z" stroke-linecap="round"/>
</g>
		<g id="c">
<ellipse style="stroke: rgb(193,193,193); stroke-width: 0; stroke-dasharray: none; stroke-linecap: butt; stroke-dashoffset: 0; stroke-linejoin: miter; stroke-miterlimit: 4; fill: rgb(24,255,166); fill-rule: nonzero; opacity: 1;" cx="0" cy="0" rx="2.75" ry="4.42" transform="matrix(-1.155407 0 0 -1.155407 564.171103 553.76149) matrix(1 0 0 1 9.05 83.44)"/>
</g>
		<g id="c">
<path style="stroke: rgb(193,193,193); stroke-width: 0; stroke-dasharray: none; stroke-linecap: butt; stroke-dashoffset: 0; stroke-linejoin: miter; stroke-miterlimit: 4; fill: rgb(24,255,166); fill-rule: nonzero; opacity: 1;" transform="matrix(-1.155407 0 0 -1.155407 564.171103 553.76149) matrix(1 0 0 1 60.56 -38.17)  translate(-189.13, -101.04)" d="M 189.13 96.62 C 187.64 96.62 186.38 98.65 186.38 101.04 C 186.38 103.43 187.64 105.46 189.13 105.46 C 190.62 105.46 191.88 103.43 191.88 101.04 C 191.88 98.65 190.62 96.62 189.13 96.62 Z" stroke-linecap="round"/>
</g>
		<g id="c">
<path style="stroke: rgb(193,193,193); stroke-width: 0; stroke-dasharray: none; stroke-linecap: butt; stroke-dashoffset: 0; stroke-linejoin: miter; stroke-miterlimit: 4; fill: rgb(24,255,166); fill-rule: nonzero; opacity: 1;" transform="matrix(-1.155407 0 0 -1.155407 564.171103 553.76149) matrix(1 0 0 1 60.56 -21.86)  translate(-189.13, -117.35)" d="M 189.13 112.93 C 187.64 112.93 186.38 114.96 186.38 117.35 C 186.38 119.74 187.64 121.77 189.13 121.77 C 190.62 121.77 191.88 119.74 191.88 117.35 C 191.88 114.96 190.62 112.93 189.13 112.93 Z" stroke-linecap="round"/>
</g>
		<g id="c">
<path style="stroke: rgb(193,193,193); stroke-width: 0; stroke-dasharray: none; stroke-linecap: butt; stroke-dashoffset: 0; stroke-linejoin: miter; stroke-miterlimit: 4; fill: rgb(24,255,166); fill-rule: nonzero; opacity: 1;" transform="matrix(-1.155407 0 0 -1.155407 564.171103 553.76149) matrix(1 0 0 1 50.26 113.62)  translate(-178.83, -252.83)" d="M 178.83 257.25 C 180.32 257.25 181.58 255.22 181.58 252.83 C 181.58 250.44 180.32 248.41 178.83 248.41 C 177.34 248.41 176.08 250.44 176.08 252.83 C 176.08 255.22 177.34 257.25 178.83 257.25 Z" stroke-linecap="round"/>
</g>
		<g id="c">
<path style="stroke: rgb(193,193,193); stroke-width: 0; stroke-dasharray: none; stroke-linecap: butt; stroke-dashoffset: 0; stroke-linejoin: miter; stroke-miterlimit: 4; fill: rgb(24,255,166); fill-rule: nonzero; opacity: 1;" transform="matrix(-1.155407 0 0 -1.155407 564.171103 553.76149) matrix(1 0 0 1 50.26 97.3)  translate(-178.83, -236.51)" d="M 178.83 232.09 C 177.34 232.09 176.08 234.12 176.08 236.51 C 176.08 238.90 177.34 240.93 178.83 240.93 C 180.32 240.93 181.58 238.90 181.58 236.51 C 181.58 234.12 180.32 232.09 178.83 232.09 Z" stroke-linecap="round"/>
</g>
		<g id="c">
<path style="stroke: rgb(193,193,193); stroke-width: 0; stroke-dasharray: none; stroke-linecap: butt; stroke-dashoffset: 0; stroke-linejoin: miter; stroke-miterlimit: 4; fill: rgb(24,255,166); fill-rule: nonzero; opacity: 1;" transform="matrix(-1.155407 0 0 -1.155407 564.171103 553.76149) matrix(1 0 0 1 50.26 64.69)  translate(-178.83, -203.9)" d="M 178.83 199.48 C 177.34 199.48 176.08 201.51 176.08 203.90 C 176.08 206.29 177.34 208.32 178.83 208.32 C 180.32 208.32 181.58 206.29 181.58 203.90 C 181.58 201.51 180.32 199.48 178.83 199.48 Z" stroke-linecap="round"/>
</g>
		<g id="c">
<path style="stroke: rgb(193,193,193); stroke-width: 0; stroke-dasharray: none; stroke-linecap: butt; stroke-dashoffset: 0; stroke-linejoin: miter; stroke-miterlimit: 4; fill: rgb(24,255,166); fill-rule: nonzero; opacity: 1;" transform="matrix(-1.155407 0 0 -1.155407 564.171103 553.76149) matrix(1 0 0 1 60.56 -5.56)  translate(-189.13, -133.65)" d="M 189.13 129.23 C 187.64 129.23 186.38 131.26 186.38 133.65 C 186.38 136.04 187.64 138.07 189.13 138.07 C 190.62 138.07 191.88 136.04 191.88 133.65 C 191.88 131.26 190.62 129.23 189.13 129.23 Z" stroke-linecap="round"/>
</g>
		<g id="c">
<path style="stroke: rgb(193,193,193); stroke-width: 0; stroke-dasharray: none; stroke-linecap: butt; stroke-dashoffset: 0; stroke-linejoin: miter; stroke-miterlimit: 4; fill: rgb(24,255,166); fill-rule: nonzero; opacity: 1;" transform="matrix(-1.155407 0 0 -1.155407 564.171103 553.76149) matrix(1 0 0 1 50.26 81)  translate(-178.83, -220.21)" d="M 178.83 215.79 C 177.34 215.79 176.08 217.82 176.08 220.21 C 176.08 222.60 177.34 224.63 178.83 224.63 C 180.32 224.63 181.58 222.60 181.58 220.21 C 181.58 217.82 180.32 215.79 178.83 215.79 Z" stroke-linecap="round"/>
</g>
		<g id="c">
<ellipse style="stroke: rgb(193,193,193); stroke-width: 0; stroke-dasharray: none; stroke-linecap: butt; stroke-dashoffset: 0; stroke-linejoin: miter; stroke-miterlimit: 4; fill: rgb(24,255,166); fill-rule: nonzero; opacity: 1;" cx="0" cy="0" rx="2.75" ry="4.42" transform="matrix(-1.155407 0 0 -1.155407 564.171103 553.76149) matrix(1 0 0 1 60.56 60.01)"/>
</g>
		<g id="c">
<path style="stroke: rgb(193,193,193); stroke-width: 0; stroke-dasharray: none; stroke-linecap: butt; stroke-dashoffset: 0; stroke-linejoin: miter; stroke-miterlimit: 4; fill: rgb(24,255,166); fill-rule: nonzero; opacity: 1;" transform="matrix(-1.155407 0 0 -1.155407 564.171103 553.76149) matrix(1 0 0 1 60.56 76.31)  translate(-189.13, -215.52)" d="M 189.13 211.10 C 187.64 211.10 186.38 213.13 186.38 215.52 C 186.38 217.91 187.64 219.94 189.13 219.94 C 190.62 219.94 191.88 217.91 191.88 215.52 C 191.88 213.13 190.62 211.10 189.13 211.10 Z" stroke-linecap="round"/>
</g>
		<g id="c">
<ellipse style="stroke: rgb(193,193,193); stroke-width: 0; stroke-dasharray: none; stroke-linecap: butt; stroke-dashoffset: 0; stroke-linejoin: miter; stroke-miterlimit: 4; fill: rgb(24,255,166); fill-rule: nonzero; opacity: 1;" cx="0" cy="0" rx="2.75" ry="4.42" transform="matrix(-1.155407 0 0 -1.155407 564.171103 553.76149) matrix(1 0 0 1 39.96 -28.79)"/>
</g>
		<g id="c">
<ellipse style="stroke: rgb(193,193,193); stroke-width: 0; stroke-dasharray: none; stroke-linecap: butt; stroke-dashoffset: 0; stroke-linejoin: miter; stroke-miterlimit: 4; fill: rgb(24,255,166); fill-rule: nonzero; opacity: 1;" cx="0" cy="0" rx="2.75" ry="4.42" transform="matrix(-1.155407 0 0 -1.155407 564.171103 553.76149) matrix(1 0 0 1 60.56 10.76)"/>
</g>
		<g id="c">
<path style="stroke: rgb(193,193,193); stroke-width: 0; stroke-dasharray: none; stroke-linecap: butt; stroke-dashoffset: 0; stroke-linejoin: miter; stroke-miterlimit: 4; fill: rgb(24,255,166); fill-rule: nonzero; opacity: 1;" transform="matrix(-1.155407 0 0 -1.155407 564.171103 553.76149) matrix(1 0 0 1 50.26 48.39)  translate(-178.83, -187.6)" d="M 178.83 183.18 C 177.34 183.18 176.08 185.21 176.08 187.60 C 176.08 189.99 177.34 192.02 178.83 192.02 C 180.32 192.02 181.58 189.99 181.58 187.60 C 181.58 185.21 180.32 183.18 178.83 183.18 Z" stroke-linecap="round"/>
</g>
		<g id="c">
<path style="stroke: rgb(193,193,193); stroke-width: 0; stroke-dasharray: none; stroke-linecap: butt; stroke-dashoffset: 0; stroke-linejoin: miter; stroke-miterlimit: 4; fill: rgb(24,255,166); fill-rule: nonzero; opacity: 1;" transform="matrix(-1.155407 0 0 -1.155407 564.171103 553.76149) matrix(1 0 0 1 60.56 27.06)  translate(-189.13, -166.27)" d="M 189.13 161.85 C 187.64 161.85 186.38 163.88 186.38 166.27 C 186.38 168.66 187.64 170.69 189.13 170.69 C 190.62 170.69 191.88 168.66 191.88 166.27 C 191.88 163.88 190.62 161.85 189.13 161.85 Z" stroke-linecap="round"/>
</g>
		<g id="c">
<path style="stroke: rgb(193,193,193); stroke-width: 0; stroke-dasharray: none; stroke-linecap: butt; stroke-dashoffset: 0; stroke-linejoin: miter; stroke-miterlimit: 4; fill: rgb(24,255,166); fill-rule: nonzero; opacity: 1;" transform="matrix(-1.155407 0 0 -1.155407 564.171103 553.76149) matrix(1 0 0 1 60.56 43.7)  translate(-189.13, -182.91)" d="M 189.13 178.49 C 187.64 178.49 186.38 180.52 186.38 182.91 C 186.38 185.30 187.64 187.33 189.13 187.33 C 190.62 187.33 191.88 185.30 191.88 182.91 C 191.88 180.52 190.62 178.49 189.13 178.49 Z" stroke-linecap="round"/>
</g>
		<g id="c">
<path style="stroke: rgb(193,193,193); stroke-width: 0; stroke-dasharray: none; stroke-linecap: butt; stroke-dashoffset: 0; stroke-linejoin: miter; stroke-miterlimit: 4; fill: rgb(24,255,166); fill-rule: nonzero; opacity: 1;" transform="matrix(-1.155407 0 0 -1.155407 564.171103 553.76149) matrix(1 0 0 1 60.56 92.62)  translate(-189.13, -231.83)" d="M 189.13 227.41 C 187.64 227.41 186.38 229.44 186.38 231.83 C 186.38 234.22 187.64 236.25 189.13 236.25 C 190.62 236.25 191.88 234.22 191.88 231.83 C 191.88 229.44 190.62 227.41 189.13 227.41 Z" stroke-linecap="round"/>
</g>
		<g id="c">
<ellipse style="stroke: rgb(193,193,193); stroke-width: 0; stroke-dasharray: none; stroke-linecap: butt; stroke-dashoffset: 0; stroke-linejoin: miter; stroke-miterlimit: 4; fill: rgb(24,255,166); fill-rule: nonzero; opacity: 1;" cx="0" cy="0" rx="2.75" ry="4.42" transform="matrix(-1.155407 0 0 -1.155407 564.171103 553.76149) matrix(1 0 0 1 39.96 36.44)"/>
</g>
		<g id="c">
<path style="stroke: rgb(193,193,193); stroke-width: 0; stroke-dasharray: none; stroke-linecap: butt; stroke-dashoffset: 0; stroke-linejoin: miter; stroke-miterlimit: 4; fill: rgb(24,255,166); fill-rule: nonzero; opacity: 1;" transform="matrix(-1.155407 0 0 -1.155407 564.171103 553.76149) matrix(1 0 0 1 39.96 85.69)  translate(-168.53, -224.9)" d="M 168.53 220.48 C 167.04 220.48 165.78 222.51 165.78 224.90 C 165.78 227.29 167.04 229.32 168.53 229.32 C 170.02 229.32 171.28 227.29 171.28 224.90 C 171.28 222.51 170.02 220.48 168.53 220.48 Z" stroke-linecap="round"/>
</g>
		<g id="c">
<path style="stroke: rgb(193,193,193); stroke-width: 0; stroke-dasharray: none; stroke-linecap: butt; stroke-dashoffset: 0; stroke-linejoin: miter; stroke-miterlimit: 4; fill: rgb(24,255,166); fill-rule: nonzero; opacity: 1;" transform="matrix(-1.155407 0 0 -1.155407 564.171103 553.76149) matrix(1 0 0 1 39.96 69.38)  translate(-168.53, -208.59)" d="M 168.53 204.17 C 167.04 204.17 165.78 206.20 165.78 208.59 C 165.78 210.98 167.04 213.01 168.53 213.01 C 170.02 213.01 171.28 210.98 171.28 208.59 C 171.28 206.20 170.02 204.17 168.53 204.17 Z" stroke-linecap="round"/>
</g>
		<g id="c">
<path style="stroke: rgb(193,193,193); stroke-width: 0; stroke-dasharray: none; stroke-linecap: butt; stroke-dashoffset: 0; stroke-linejoin: miter; stroke-miterlimit: 4; fill: rgb(24,255,166); fill-rule: nonzero; opacity: 1;" transform="matrix(-1.155407 0 0 -1.155407 564.171103 553.76149) matrix(1 0 0 1 39.96 53.07)  translate(-168.53, -192.28)" d="M 168.53 187.86 C 167.04 187.86 165.78 189.89 165.78 192.28 C 165.78 194.67 167.04 196.70 168.53 196.70 C 170.02 196.70 171.28 194.67 171.28 192.28 C 171.28 189.89 170.02 187.86 168.53 187.86 Z" stroke-linecap="round"/>
</g>
		<g id="c">
<path style="stroke: rgb(193,193,193); stroke-width: 0; stroke-dasharray: none; stroke-linecap: butt; stroke-dashoffset: 0; stroke-linejoin: miter; stroke-miterlimit: 4; fill: rgb(24,255,166); fill-rule: nonzero; opacity: 1;" transform="matrix(-1.155407 0 0 -1.155407 564.171103 553.76149) matrix(1 0 0 1 39.96 20.12)  translate(-168.53, -159.33)" d="M 168.53 154.91 C 167.04 154.91 165.78 156.94 165.78 159.33 C 165.78 161.72 167.04 163.75 168.53 163.75 C 170.02 163.75 171.28 161.72 171.28 159.33 C 171.28 156.94 170.02 154.91 168.53 154.91 Z" stroke-linecap="round"/>
</g>
		<g id="c">
<path style="stroke: rgb(193,193,193); stroke-width: 0; stroke-dasharray: none; stroke-linecap: butt; stroke-dashoffset: 0; stroke-linejoin: miter; stroke-miterlimit: 4; fill: rgb(24,255,166); fill-rule: nonzero; opacity: 1;" transform="matrix(-1.155407 0 0 -1.155407 564.171103 553.76149) matrix(1 0 0 1 50.26 31.74)  translate(-178.83, -170.95)" d="M 178.83 166.53 C 177.34 166.53 176.08 168.56 176.08 170.95 C 176.08 173.34 177.34 175.37 178.83 175.37 C 180.32 175.37 181.58 173.34 181.58 170.95 C 181.58 168.56 180.32 166.53 178.83 166.53 Z" stroke-linecap="round"/>
</g>
		<g id="c">
<path style="stroke: rgb(193,193,193); stroke-width: 0; stroke-dasharray: none; stroke-linecap: butt; stroke-dashoffset: 0; stroke-linejoin: miter; stroke-miterlimit: 4; fill: rgb(24,255,166); fill-rule: nonzero; opacity: 1;" transform="matrix(-1.155407 0 0 -1.155407 564.171103 553.76149) matrix(1 0 0 1 39.96 3.82)  translate(-168.53, -143.03)" d="M 168.53 138.61 C 167.04 138.61 165.78 140.64 165.78 143.03 C 165.78 145.42 167.04 147.45 168.53 147.45 C 170.02 147.45 171.28 145.42 171.28 143.03 C 171.28 140.64 170.02 138.61 168.53 138.61 Z" stroke-linecap="round"/>
</g>
		<g id="c">
<path style="stroke: rgb(193,193,193); stroke-width: 0; stroke-dasharray: none; stroke-linecap: butt; stroke-dashoffset: 0; stroke-linejoin: miter; stroke-miterlimit: 4; fill: rgb(24,255,166); fill-rule: nonzero; opacity: 1;" transform="matrix(-1.155407 0 0 -1.155407 564.171103 553.76149) matrix(1 0 0 1 39.96 -12.49)  translate(-168.53, -126.72)" d="M 168.53 122.30 C 167.04 122.30 165.78 124.33 165.78 126.72 C 165.78 129.11 167.04 131.14 168.53 131.14 C 170.02 131.14 171.28 129.11 171.28 126.72 C 171.28 124.33 170.02 122.30 168.53 122.30 Z" stroke-linecap="round"/>
</g>
		<g id="c">
<path style="stroke: rgb(193,193,193); stroke-width: 0; stroke-dasharray: none; stroke-linecap: butt; stroke-dashoffset: 0; stroke-linejoin: miter; stroke-miterlimit: 4; fill: rgb(24,255,166); fill-rule: nonzero; opacity: 1;" transform="matrix(-1.155407 0 0 -1.155407 564.171103 553.76149) matrix(1 0 0 1 50.26 -0.87)  translate(-178.83, -138.34)" d="M 178.83 133.92 C 177.34 133.92 176.08 135.95 176.08 138.34 C 176.08 140.73 177.34 142.76 178.83 142.76 C 180.32 142.76 181.58 140.73 181.58 138.34 C 181.58 135.95 180.32 133.92 178.83 133.92 Z" stroke-linecap="round"/>
</g>
		<g id="c">
<path style="stroke: rgb(193,193,193); stroke-width: 0; stroke-dasharray: none; stroke-linecap: butt; stroke-dashoffset: 0; stroke-linejoin: miter; stroke-miterlimit: 4; fill: rgb(24,255,166); fill-rule: nonzero; opacity: 1;" transform="matrix(-1.155407 0 0 -1.155407 564.171103 553.76149) matrix(1 0 0 1 50.26 -17.18)  translate(-178.83, -122.03)" d="M 178.83 117.61 C 177.34 117.61 176.08 119.64 176.08 122.03 C 176.08 124.42 177.34 126.45 178.83 126.45 C 180.32 126.45 181.58 124.42 181.58 122.03 C 181.58 119.64 180.32 117.61 178.83 117.61 Z" stroke-linecap="round"/>
</g>
		<g id="c">
<path style="stroke: rgb(193,193,193); stroke-width: 0; stroke-dasharray: none; stroke-linecap: butt; stroke-dashoffset: 0; stroke-linejoin: miter; stroke-miterlimit: 4; fill: rgb(24,255,166); fill-rule: nonzero; opacity: 1;" transform="matrix(-1.155407 0 0 -1.155407 564.171103 553.76149) matrix(1 0 0 1 50.26 15.44)  translate(-178.83, -154.65)" d="M 178.83 150.23 C 177.34 150.23 176.08 152.26 176.08 154.65 C 176.08 157.04 177.34 159.07 178.83 159.07 C 180.32 159.07 181.58 157.04 181.58 154.65 C 181.58 152.26 180.32 150.23 178.83 150.23 Z" stroke-linecap="round"/>
</g>
		<g id="c">
<path style="stroke: rgb(193,193,193); stroke-width: 0; stroke-dasharray: none; stroke-linecap: butt; stroke-dashoffset: 0; stroke-linejoin: miter; stroke-miterlimit: 4; fill: rgb(24,255,166); fill-rule: nonzero; opacity: 1;" transform="matrix(-1.155407 0 0 -1.155407 564.171103 553.76149) matrix(1 0 0 1 50.26 -33.48)  translate(-178.83, -105.73)" d="M 178.83 101.31 C 177.34 101.31 176.08 103.34 176.08 105.73 C 176.08 108.12 177.34 110.15 178.83 110.15 C 180.32 110.15 181.58 108.12 181.58 105.73 C 181.58 103.34 180.32 101.31 178.83 101.31 Z" stroke-linecap="round"/>
</g>
		<g id="c">
<path style="stroke: rgb(193,193,193); stroke-width: 0; stroke-dasharray: none; stroke-linecap: butt; stroke-dashoffset: 0; stroke-linejoin: miter; stroke-miterlimit: 4; fill: rgb(24,255,166); fill-rule: nonzero; opacity: 1;" transform="matrix(-1.155407 0 0 -1.155407 564.171103 553.76149) matrix(1 0 0 1 39.96 118.3)  translate(-168.53, -257.51)" d="M 168.53 253.09 C 167.04 253.09 165.78 255.12 165.78 257.51 C 165.78 259.90 167.04 261.93 168.53 261.93 C 170.02 261.93 171.28 259.90 171.28 257.51 C 171.28 255.12 170.02 253.09 168.53 253.09 Z" stroke-linecap="round"/>
</g>
		<g id="c">
<ellipse style="stroke: rgb(193,193,193); stroke-width: 0; stroke-dasharray: none; stroke-linecap: butt; stroke-dashoffset: 0; stroke-linejoin: miter; stroke-miterlimit: 4; fill: rgb(24,255,166); fill-rule: nonzero; opacity: 1;" cx="0" cy="0" rx="2.75" ry="4.42" transform="matrix(-1.155407 0 0 -1.155407 564.171103 553.76149) matrix(1 0 0 1 39.96 102)"/>
</g>
</g>
</g>
<g id="nlWyLdK-TbvitL41IFOuA">
<path style="stroke: rgb(24,255,166); stroke-width: 3.8995827566994294; stroke-dasharray: none; stroke-linecap: butt; stroke-dashoffset: 0; stroke-linejoin: round; stroke-miterlimit: 4; fill: rgb(24,255,166); fill-rule: nonzero; opacity: 1;" vector-effect="non-scaling-stroke" transform="matrix(1 0 0 1 576.31448 400.31545)  translate(-576.31448, -400.31545)" d="M 616.51 515.79 L 576.31 532.85 L 632.92 559.47 L 673.11 542.40 L 616.51 515.79 z M 616.51 400.32 L 576.31 417.38 L 576.31 532.85 L 616.51 515.79 L 616.51 400.32 z M 616.51 515.79 L 673.11 542.40 L 686.17 534.12 L 686.17 447.52 L 673.11 426.93 L 616.51 400.32 z M 636.02 428.74 L 595.82 445.80 L 626.47 460.22 L 666.67 443.15 L 636.02 428.74 z M 666.67 443.15 L 626.47 460.22 L 626.47 537.20 L 666.67 520.13 L 666.67 443.15 z M 636.02 505.72 L 636.02 428.74 L 666.67 443.15 L 666.67 520.13 z M 715.08 562.14 L 674.89 579.21 L 694.39 588.38 L 734.58 571.31 L 715.08 562.14 z M 734.58 523.20 L 694.39 540.27 L 704.84 545.18 L 745.04 528.12 L 734.58 523.20 z M 745.04 528.12 L 704.84 545.18 L 724.00 602.30 L 764.19 585.24 L 745.04 528.12 z M 764.19 585.24 L 724.00 602.30 L 744.54 611.96 L 784.74 594.90 L 764.19 585.24 z M 765.59 537.78 L 725.39 554.85 L 744.54 563.85 L 784.74 546.79 L 765.59 537.78 z M 715.08 446.67 L 674.89 463.74 L 674.89 579.21 L 715.08 562.14 L 715.08 446.67 z M 715.08 562.14 L 734.58 571.31 L 734.58 523.20 L 745.04 528.12 L 764.19 585.24 L 784.74 594.90 L 765.59 537.78 L 784.74 546.79 L 784.74 479.43 L 715.08 446.67 z M 734.58 475.09 L 694.39 492.16 L 725.04 506.57 L 765.23 489.51 L 734.58 475.09 z M 765.23 489.51 L 725.04 506.57 L 725.04 535.43 L 765.23 518.37 L 765.23 489.51 z M 734.58 503.95 L 734.58 475.09 L 765.23 489.51 L 765.23 518.37 z" stroke-linecap="round"/>
</g>
<g id="rg6gW8xSSI1_vHqQbT9GB">
<g>
		<g id="cnWU58t5iIBGG-U9bAGad">
<path style="stroke: rgb(193,193,193); stroke-width: 0; stroke-dasharray: none; stroke-linecap: butt; stroke-dashoffset: 0; stroke-linejoin: miter; stroke-miterlimit: 4; fill: rgb(55,55,55); fill-rule: nonzero; opacity: 1;" d="M616.51,400.32l56.6,26.61l13.06,20.59v86.6l-13.06,8.28l-56.6,-26.61zM666.67,520.13v-76.98l-30.65,-14.41v76.98zM715.08,446.67l69.66,32.76v67.36l-19.15,-9.01l19.15,57.12l-20.55,-9.66l-19.15,-57.12l-10.46,-4.92v48.11l-19.5,-9.17zM765.23,518.37v-28.86l-30.65,-14.42v28.86z" stroke-linecap="round"/>
</g>
</g>
</g>
<g id="U5D7DLklrZ0n0yIVd_aAy">
<path style="stroke: rgb(193,193,193); stroke-width: 0; stroke-dasharray: none; stroke-linecap: butt; stroke-dashoffset: 0; stroke-linejoin: miter; stroke-miterlimit: 4; fill: rgb(24,255,166); fill-rule: nonzero; opacity: 1;" transform="matrix(1 0 0 1 576.31448 400.31545)  translate(-576.31448, -400.31545)" d="" stroke-linecap="round"/>
</g>
<g id="gBJzVaQL6A-tFtMuUOMgc">
<path style="stroke: rgb(193,193,193); stroke-width: 0; stroke-dasharray: none; stroke-linecap: butt; stroke-dashoffset: 0; stroke-linejoin: miter; stroke-miterlimit: 4; fill: rgb(193,193,193); fill-rule: nonzero; opacity: 1;" transform="matrix(1 0 0 1 576.31448 400.31545)  translate(-576.31448, -400.31545)" d="" stroke-linecap="round"/>
</g>

  </svg>