<?xml version="1.0" encoding="UTF-8"?>
<svg id="Layer_1" data-name="Layer 1" xmlns="http://www.w3.org/2000/svg" viewBox="0 0 1920 1080">
  <defs>
    <style>
      .cls-1 {
        fill: #18ffa6;
      }
    </style>
  </defs>
  <path class="cls-1" d="M1193.49,482.78v.84s-.05-.02-.07-.03c-.61-.28-1.23-.56-1.84-.84-.04-.02-.06-.04-.06-.08,0-.79,0-1.58,0-2.37,0-.01,0-.03,0-.05,.14,.06,.27,.12,.41,.19-.08,.04-.15,.07-.22,.09-.04,.02-.06,.04-.06,.09,0,.48,0,.96,0,1.44,0,.05,.02,.08,.07,.1,.22,.1,.44,.21,.66,.31,.03,.01,.08,.02,.11,0,.14-.05,.27-.11,.41-.17,.02,0,.04-.02,.07-.03,0,.14,0,.28,0,.41,0,.05,.02,.07,.06,.1,.14,.08,.28,.12,.42,.02,0,0,.02,0,.04,0Z"/>
  <path class="cls-1" d="M1193.8,481.99v.64c-.09-.04-.17-.08-.25-.12-.01,0-.02-.03-.02-.04,0-.5,0-.99,0-1.49,0,0,0,0,0-.01,.02,0,.04,.02,.06,.03,.27,.13,.53,.25,.8,.38,.04,.02,.06,.04,.06,.09,0,.26,0,.51,0,.77,0,.02,0,.04,0,.07-.08-.04-.16-.07-.25-.11,.09,.26,.17,.5,.25,.76-.1-.05-.18-.08-.26-.13-.02,0-.03-.04-.04-.06-.07-.21-.15-.41-.21-.63-.03-.09-.08-.11-.16-.14Zm.4-.08c0-.12,0-.23,0-.35,0-.01-.01-.04-.02-.04-.12-.06-.24-.12-.38-.18,0,.13,0,.24,0,.36,0,.01,.01,.03,.03,.03,.12,.06,.24,.11,.37,.18Z"/>
  <path class="cls-1" d="M1192.22,480.34s.05,.02,.07,.03c.2,.09,.4,.19,.6,.28,.05,.03,.09,.06,.13,.11,.1,.13,.14,.27,.13,.44-.01,.28,0,.57,0,.85,0,.05-.02,.08-.06,.11-.08,.07-.15,.06-.24,.01-.19-.1-.38-.18-.58-.27-.04-.02-.06-.04-.06-.09,0-.47,0-.94,0-1.4,0-.02,0-.04,0-.07Zm.26,.38c0,.29,.01,.56,0,.83,0,.15,.03,.23,.17,.27,.08,.02,.15,.07,.24,.11,0-.34,0-.66,0-.99,0-.01-.01-.03-.03-.04-.12-.06-.24-.12-.38-.18Z"/>
  <path class="cls-1" d="M1193.18,481.08v-.09s.06,.02,.1,.04c-.04,.02-.06,.03-.1,.04Z"/>
</svg>